<?xml version="1.0" encoding="UTF-8"?>
<svg xmlns="http://www.w3.org/2000/svg" xmlns:xlink="http://www.w3.org/1999/xlink" width="1125pt" height="1125pt" viewBox="0 0 1125 1125" version="1.1">
<defs>
<clipPath id="clip1">
  <path d="M 0 0 L 1125 0 L 1125 1125 L 0 1125 Z M 0 0 "/>
</clipPath>
<linearGradient id="linear0" gradientUnits="userSpaceOnUse" x1="24.402344" y1="15.566406" x2="1523.882813" y2="1515.15625" gradientTransform="matrix(0.75,0,0,0.75,-18.110451,-11.507551)">
<stop offset="0.0444444" style="stop-color:rgb(100%,3.921569%,89.803922%);stop-opacity:1;"/>
<stop offset="0.488889" style="stop-color:rgb(51.764706%,3.921569%,100%);stop-opacity:1;"/>
<stop offset="0.955556" style="stop-color:rgb(0%,77.254902%,77.254902%);stop-opacity:1;"/>
</linearGradient>
<linearGradient id="linear1" gradientUnits="userSpaceOnUse" x1="305.714844" y1="201.191406" x2="426.804688" y2="333.128906" gradientTransform="matrix(0.75,0,0,0.75,-56.669277,569.788548)">
<stop offset="0" style="stop-color:rgb(100%,100%,100%);stop-opacity:1;"/>
<stop offset="1" style="stop-color:rgb(100%,84.313725%,98.039216%);stop-opacity:1;"/>
</linearGradient>
<linearGradient id="linear2" gradientUnits="userSpaceOnUse" x1="207.269531" y1="-316.917969" x2="270.324219" y2="-490.394531" gradientTransform="matrix(0.75,0,0,0.75,37.872602,708.838467)">
<stop offset="0" style="stop-color:rgb(100%,100%,100%);stop-opacity:1;"/>
<stop offset="1" style="stop-color:rgb(100%,84.313725%,98.039216%);stop-opacity:1;"/>
</linearGradient>
</defs>
<g id="surface0">
<g clip-path="url(#clip1)" clip-rule="nonzero">
<path style=" stroke:none;fill-rule:nonzero;fill:url(#linear0);" d="M 112.839844 0.171875 L 1012.148438 0.171875 C 1074.519531 0.171875 1124.800781 50.449219 1124.800781 112.828125 L 1124.800781 1012.199219 C 1124.800781 1074.574219 1074.519531 1124.863281 1012.148438 1124.863281 L 112.839844 1124.863281 C 50.46875 1124.863281 0.191406 1074.574219 0.191406 1012.199219 L 0.191406 112.828125 C 0.191406 50.449219 50.46875 0.171875 112.839844 0.171875 Z M 112.839844 0.171875 "/>
<path style=" stroke:none;fill-rule:nonzero;fill:rgb(100%,90.588235%,98.823529%);fill-opacity:1;" d="M 567.214844 493.355469 C 804.417969 493.355469 996.746094 614.667969 996.746094 764.292969 C 996.746094 913.917969 804.417969 1035.214844 567.214844 1035.214844 C 329.96875 1035.214844 137.644531 913.917969 137.644531 764.292969 C 137.644531 614.667969 329.96875 493.355469 567.214844 493.355469 Z M 360.785156 901.527344 C 474.777344 901.527344 567.214844 843.230469 567.214844 771.328125 C 567.214844 699.425781 474.777344 641.136719 360.785156 641.136719 C 246.792969 641.136719 154.371094 699.425781 154.371094 771.328125 C 154.371094 843.230469 246.792969 901.527344 360.785156 901.527344 Z M 360.785156 901.527344 "/>
<path style=" stroke:none;fill-rule:nonzero;fill:url(#linear1);" d="M 218.027344 720.679688 C 192.953125 720.679688 172.621094 742.84375 172.621094 770.167969 C 172.621094 797.480469 192.953125 819.636719 218.027344 819.636719 C 243.097656 819.636719 263.429688 797.480469 263.429688 770.167969 C 263.429688 742.835938 243.097656 720.679688 218.027344 720.679688 Z M 218.027344 720.679688 "/>
<path style=" stroke:none;fill-rule:nonzero;fill:rgb(100%,90.588235%,98.823529%);fill-opacity:1;" d="M 362.402344 122.964844 C 516.378906 66.609375 668.816406 110.394531 702.835938 220.757813 C 736.855469 331.113281 639.582031 466.269531 485.605469 522.625 C 331.59375 578.988281 179.171875 535.214844 145.152344 424.855469 C 111.132813 314.5 208.390625 179.328125 362.402344 122.964844 Z M 321.207031 473.0625 C 395.199219 445.980469 441.957031 381.023438 425.605469 327.984375 C 409.257813 274.960938 335.996094 253.921875 262 281.003906 C 188 308.085938 141.257813 373.035156 157.609375 426.070313 C 173.957031 479.109375 247.203125 500.140625 321.207031 473.0625 Z M 321.207031 473.0625 "/>
<path style=" stroke:none;fill-rule:nonzero;fill:url(#linear2);" d="M 235.003906 451.507813 C 211.984375 462.351563 185.246094 450.816406 175.296875 425.734375 C 165.34375 400.671875 175.933594 371.535156 198.941406 360.6875 C 221.953125 349.84375 248.691406 361.378906 258.644531 386.449219 C 268.601563 411.523438 258.011719 440.660156 235.003906 451.507813 Z M 235.003906 451.507813 "/>
</g>
</g>
</svg>
